<?xml version="1.0" standalone="no"?>
<!DOCTYPE svg PUBLIC "-//W3C//DTD SVG 20010904//EN"
 "http://www.w3.org/TR/2001/REC-SVG-20010904/DTD/svg10.dtd">
<svg version="1.0" xmlns="http://www.w3.org/2000/svg"
 width="620.000000pt" height="620.000000pt" viewBox="0 0 620.000000 620.000000"
 preserveAspectRatio="xMidYMid meet">
<metadata>
Created by potrace 1.11, written by Peter Selinger 2001-2013
</metadata>
<g transform="translate(0.000000,620.000000) scale(0.100000,-0.100000)"
fill="#000000" stroke="none">
<path d="M1600 5730 c-34 -5 -36 -8 -63 -85 -45 -128 -60 -239 -54 -400 3 -83
11 -162 21 -195 8 -30 18 -65 22 -76 4 -16 -3 -32 -28 -60 -83 -93 -170 -249
-212 -378 -45 -138 -60 -261 -53 -456 4 -96 11 -206 17 -245 10 -70 52 -254
65 -287 7 -17 -10 -18 -266 -18 -284 0 -458 -9 -689 -36 -147 -17 -349 -50
-358 -59 -17 -17 25 -15 180 9 314 47 599 67 935 65 l212 0 26 -56 c14 -30 25
-56 25 -58 0 -1 -66 -5 -147 -9 -175 -8 -381 -28 -588 -57 -257 -36 -635 -120
-635 -140 0 -14 20 -11 147 20 317 79 718 134 1128 155 l110 6 40 -66 c22 -37
78 -106 125 -153 195 -200 466 -327 854 -401 61 -11 112 -22 114 -24 2 -3 -1
-13 -7 -24 -6 -12 -11 -28 -11 -36 0 -9 -20 -45 -45 -81 -25 -37 -55 -98 -68
-142 -23 -73 -27 -78 -66 -95 -57 -24 -179 -48 -245 -48 -84 0 -153 18 -244
62 -93 45 -183 130 -250 233 -37 57 -153 175 -173 175 -5 0 -9 14 -9 30 0 20
-9 40 -26 57 -23 23 -31 25 -79 20 -47 -5 -55 -3 -60 14 -8 25 -30 36 -90 43
l-50 6 49 -16 c45 -14 48 -17 33 -31 -13 -14 -42 -16 -164 -17 -192 0 -234 3
-251 17 -12 9 -7 15 24 29 l39 17 -40 -5 c-22 -4 -51 -13 -63 -21 -23 -14 -24
-16 -20 -177 3 -159 3 -163 36 -228 40 -81 66 -96 189 -104 122 -9 197 7 243
49 19 18 53 46 75 62 22 16 46 36 52 45 11 13 15 12 33 -10 32 -38 110 -173
110 -188 0 -8 16 -46 36 -86 20 -39 41 -82 48 -95 6 -14 35 -51 65 -83 64 -69
178 -130 286 -153 110 -23 317 -18 442 10 l22 5 1 -232 c1 -128 2 -258 3 -288
1 -95 -63 -190 -164 -241 -66 -33 -85 -58 -69 -89 15 -28 49 -34 149 -27 181
13 301 82 358 205 22 47 26 75 35 235 5 100 6 268 2 374 -7 211 0 263 44 346
14 26 28 47 31 47 3 0 4 -61 3 -135 -3 -81 0 -141 6 -148 10 -12 28 -440 26
-629 -1 -96 -4 -112 -29 -160 -15 -29 -50 -77 -76 -106 -54 -59 -70 -98 -48
-114 8 -5 48 -7 89 -5 60 3 88 10 139 36 73 37 162 117 196 176 23 39 24 45
18 188 -4 105 -10 153 -20 162 -11 11 -13 77 -11 347 l3 333 29 3 28 4 -4 81
c-5 89 -36 172 -98 262 -36 53 -32 75 5 30 31 -37 105 -181 105 -204 0 -9 23
29 50 83 27 55 57 107 65 116 8 9 15 26 15 38 0 12 5 22 11 22 5 0 7 -5 3 -11
-3 -6 -2 -14 4 -18 7 -4 0 -23 -20 -51 -61 -90 -101 -190 -106 -268 -4 -57 -2
-72 9 -72 8 0 75 9 149 20 151 22 194 25 185 10 -3 -5 0 -7 8 -4 10 3 21 -9
35 -38 39 -80 45 -139 39 -363 -7 -239 10 -526 36 -587 23 -55 92 -124 154
-153 107 -51 294 -72 341 -39 44 31 27 60 -66 110 -57 30 -95 71 -133 144 -21
41 -23 55 -19 155 9 228 1 845 -11 845 -3 0 -13 27 -23 61 -20 72 -65 164
-100 206 -14 17 -26 41 -26 53 0 12 -5 30 -10 40 -9 17 -6 20 27 25 526 90
862 267 1055 555 27 41 51 76 53 78 6 6 370 -20 540 -39 230 -25 440 -60 635
-106 206 -48 200 -47 200 -35 0 11 -9 14 -156 51 -270 68 -642 121 -999 142
-110 7 -202 13 -203 15 -7 5 39 98 51 106 17 11 401 10 602 -2 206 -12 407
-33 573 -61 116 -19 154 -19 123 0 -18 12 -250 47 -431 67 -89 10 -284 18
-502 21 -197 3 -358 7 -358 9 0 2 11 46 24 98 43 164 58 296 59 506 1 179 -1
204 -25 300 -45 179 -117 324 -226 458 l-44 55 23 96 c20 80 24 121 23 246 0
154 -14 235 -62 375 l-19 55 -74 3 c-45 2 -101 -4 -144 -14 -76 -18 -243 -83
-315 -122 -117 -64 -159 -88 -214 -125 l-59 -39 -121 26 c-240 52 -321 60
-621 60 -300 0 -380 -8 -612 -60 l-119 -26 -89 56 c-265 167 -544 267 -685
246z m1725 -1490 c55 -24 154 -63 220 -87 136 -49 118 -48 -113 8 -150 37
-376 109 -394 127 -4 4 37 4 90 1 85 -5 109 -11 197 -49z m-1148 -14 c230
-115 525 -195 883 -242 174 -22 632 -30 900 -15 210 12 218 12 354 -12 l140
-24 20 -54 c29 -80 28 -311 -3 -423 -75 -276 -268 -448 -597 -531 -384 -98
-1136 -99 -1517 -4 -337 85 -531 246 -605 504 -25 85 -34 138 -24 133 4 -2 31
-16 60 -31 30 -16 56 -26 59 -24 2 3 -4 22 -15 44 -21 41 -47 118 -57 170 -6
32 -5 31 58 -32 64 -64 96 -83 82 -47 -24 57 -44 123 -50 166 l-7 50 42 -38
c23 -21 44 -35 47 -33 2 3 0 31 -6 63 -33 177 10 335 108 401 19 13 35 23 37
23 2 0 43 -20 91 -44z m2086 -157 c122 -13 164 -29 75 -29 -68 0 -145 14 -189
35 -19 8 -26 13 -16 10 10 -2 68 -10 130 -16z m153 -66 c22 -29 16 -31 -32
-14 -44 16 -44 16 -17 22 15 4 30 7 32 8 2 0 10 -7 17 -16z m-3106 -1203 c22
-14 0 -44 -34 -48 -20 -3 -26 1 -26 17 0 11 8 25 18 30 21 13 24 13 42 1z
m136 -74 c28 -22 7 -51 -36 -51 -43 0 -64 29 -36 51 11 8 27 14 36 14 9 0 25
-6 36 -14z m1534 -30 c0 -9 -30 -14 -35 -6 -4 6 3 10 14 10 12 0 21 -2 21 -4z
m5 -26 c-3 -5 1 -10 10 -10 9 0 13 -4 10 -10 -4 -6 -13 -5 -25 2 -14 9 -16 14
-7 20 16 10 19 10 12 -2z m235 -20 c0 -5 -2 -10 -4 -10 -3 0 -8 5 -11 10 -3 6
-1 10 4 10 6 0 11 -4 11 -10z m-336 -22 c12 -43 18 -213 9 -237 -8 -19 -11 6
-16 100 -3 68 -8 132 -12 142 -4 9 -3 17 3 17 5 0 13 -10 16 -22z m434 -34
c-3 -28 -1 -34 15 -34 49 0 97 -52 97 -105 0 -34 -45 -83 -84 -90 -30 -6 -32
-9 -29 -43 2 -27 0 -33 -7 -22 -5 8 -10 25 -10 37 0 12 -11 32 -24 45 -53 49
-51 114 3 162 12 11 21 31 21 47 0 15 3 35 7 45 9 25 16 1 11 -42z m-2052 17
c-12 -19 -24 -12 -19 10 4 13 9 17 15 11 6 -6 7 -15 4 -21z m265 13 c26 -23 8
-54 -31 -54 -51 0 -77 51 -32 63 33 9 46 7 63 -9z m1643 -7 c17 -13 17 -14 1
-30 -23 -23 -120 -24 -143 -1 -15 15 -14 18 3 30 24 18 116 18 139 1z m-1578
-106 c-8 -13 -66 -35 -73 -28 -12 13 20 37 49 37 16 0 27 -4 24 -9z"/>
<path d="M3849 3917 c-115 -60 -164 -258 -99 -405 37 -84 88 -122 163 -122 80
0 145 69 173 183 37 148 -23 308 -133 353 -43 19 -53 18 -104 -9z"/>
<path d="M2294 3920 c-74 -30 -130 -144 -128 -265 1 -149 70 -253 173 -263 60
-5 101 15 141 70 81 112 79 303 -5 404 -17 20 -42 42 -57 50 -30 15 -91 17
-124 4z"/>
<path d="M3057 3342 c-9 -10 -17 -32 -17 -49 0 -78 111 -87 135 -12 18 55 -79
105 -118 61z"/>
<path d="M2940 3123 c0 -30 44 -83 86 -103 52 -26 116 -26 163 1 39 22 81 75
81 102 0 28 -28 19 -45 -13 -47 -92 -193 -91 -240 1 -17 32 -45 39 -45 12z"/>
<path d="M3310 2524 c0 -13 7 -15 35 -11 33 5 35 4 41 -30 5 -28 3 -39 -10
-49 -10 -7 -16 -21 -14 -31 3 -16 5 -16 26 5 30 30 29 76 -3 107 -28 29 -75
34 -75 9z"/>
<path d="M3262 2495 c-15 -33 -15 -48 0 -43 13 5 30 68 18 68 -4 0 -12 -11
-18 -25z"/>
<path d="M3264 2424 c3 -9 6 -18 6 -20 0 -2 5 -4 11 -4 8 0 8 4 0 14 -9 11 -9
15 1 19 8 3 6 6 -6 6 -13 1 -16 -4 -12 -15z"/>
<path d="M3278 1567 l-128 -20 1 -156 c1 -113 5 -164 15 -183 61 -118 279
-243 389 -222 19 3 38 11 41 16 11 18 -6 56 -49 104 -24 27 -56 72 -73 99 -29
50 -29 50 -29 218 0 161 -1 167 -20 166 -11 -1 -77 -11 -147 -22z"/>
</g>
</svg>
